<?xml version="1.0" standalone="no"?>
<!DOCTYPE svg PUBLIC "-//W3C//DTD SVG 1.0//EN" "http://www.w3.org/TR/2001/REC-SVG-20010904/DTD/svg10.dtd">
<svg xmlns="http://www.w3.org/2000/svg" xmlns:xlink="http://www.w3.org/1999/xlink" id="body_1" width="1" height="1">

<g transform="matrix(0.014467592 0 0 0.014467592 0.028935185 0.028935185)">
	<g>
	</g>
	<g>
	</g>
	<g>
		<g>
            <path d="M32 0C 14.355 0 0 14.355 0 32C 0 49.645 14.355 64 32 64C 49.645 64 64 49.645 64 32C 64 14.355 49.645 0 32 0zM32 62C 15.458 62 2 48.542 2 32C 2 15.458 15.458 2 32 2C 48.542 2 62 15.458 62 32C 62 48.542 48.542 62 32 62z" stroke="none" fill="#231F20" fill-rule="nonzero" />
            <path d="M34.996 28.021L35 28.008L35 17C 35 15.346 33.654 14 32 14C 30.346 14 29 15.346 29 17L29 17L29 28L29.004 28.021C 27.795 28.936 27 30.371 27 32C 27 34.757 29.243 37 32 37C 34.757 37 37 34.757 37 32C 37 30.371 36.205 28.936 34.996 28.021zM31 17C 31 16.448 31.448 16 32 16C 32.552002 16 33 16.448 33 17L33 17L33 27.102001C 32.677 27.035 32.343 27 32 27C 31.657001 27 31.323 27.035 31 27.102L31 27.102L31 17zM32 35C 30.346 35 29 33.654 29 32C 29 30.346 30.346 29 32 29C 33.654 29 35 30.346 35 32C 35 33.654 33.654 35 32 35z" stroke="none" fill="#231F20" fill-rule="nonzero" />
            <path d="M32.03 31L32.02 31C 31.468 31 31.026001 31.447 31.026001 32C 31.026001 32.553 31.478 33 32.031002 33C 32.583 33 33.031002 32.553 33.031002 32C 33.031002 31.446999 32.582 31 32.03 31z" stroke="none" fill="#231F20" fill-rule="nonzero" />
            <path d="M32 4C 16.561 4 4 16.561 4 32C 4 36.738 5.19 41.201 7.277 45.116C 7.591 45.706 7.923 46.285 8.278 46.849003L8.278 46.849003L14.313 43.364002C 14.792 43.089 14.955 42.478 14.679 42.000004C 14.403 41.521004 13.792 41.356003 13.312 41.634003L13.312 41.634003L9.011 44.117004L9.011 44.116005C 8.266999 42.711006 7.6509995 41.229004 7.1699996 39.687004L7.1699996 39.687004L9.073999 39.177006C 9.608999 39.032005 9.926 38.489006 9.780999 37.952007C 9.638 37.419006 9.089999 37.10201 8.555999 37.245007L8.555999 37.245007L6.6559987 37.754005C 6.304999 36.216007 6.0929985 34.627007 6.029999 32.998005L6.029999 32.998005L11 32.998005C 11.554 32.998005 11.999 32.551006 12 31.999004C 12 31.445004 11.554 30.998005 10.999 30.998005L10.999 30.998005L6.025 30.998005C 6.087 29.370005 6.3 27.780005 6.65 26.242004L6.65 26.242004L8.557 26.753004C 9.092 26.896004 9.639 26.583004 9.782001 26.046003C 9.926001 25.514004 9.608001 24.965004 9.075001 24.821003L9.075001 24.821003L7.161 24.31C 7.64 22.765999 8.264 21.286999 9.007999 19.879L9.007999 19.879L13.315 22.365C 13.794 22.640999 14.403 22.477 14.679999 22C 14.955999 21.521 14.792999 20.91 14.313 20.633L14.313 20.633L10.011999 18.151C 10.8689995 16.793999 11.846999 15.520999 12.932999 14.348L12.932999 14.348L14.321999 15.7369995C 14.714998 16.128 15.343999 16.13 15.735998 15.7369995C 16.126999 15.346999 16.126999 14.714 15.735998 14.323L15.735998 14.323L14.346998 12.934C 15.519999 11.847 16.793999 10.87 18.151999 10.011L18.151999 10.011L20.634998 14.313999C 20.910997 14.792999 21.521997 14.954999 21.999998 14.679999C 22.478998 14.402999 22.642998 13.792 22.364998 13.311999L22.364998 13.311999L19.88 9.008C 21.286 8.264 22.765999 7.6410003 24.308998 7.1620007L24.308998 7.1620007L24.821999 9.076C 24.967 9.610001 25.510998 9.928 26.046999 9.783C 26.579998 9.64 26.897999 9.093 26.754 8.558L26.754 8.558L26.242 6.65C 27.781 6.3 29.372002 6.087 31.001 6.025L31.001 6.025L31 11.001C 31 11.553 31.448 11.999001 32 12C 32.553 11.999 33 11.553 33 10.998L33 10.998L33 6.025C 34.628 6.087 36.218 6.3 37.757 6.65L37.757 6.65L37.245 8.558001C 37.101997 9.092001 37.417 9.64 37.952 9.783001C 38.485 9.927001 39.034 9.610001 39.177 9.076001L39.177 9.076001L39.69 7.161001C 41.233997 7.6400013 42.713997 8.264001 44.121998 9.008001L44.121998 9.008001L41.634 13.3150015C 41.358997 13.793001 41.524 14.404001 42.001 14.679002C 42.48 14.955002 43.091 14.792002 43.368 14.312002L43.368 14.312002L45.85 10.012002C 47.206997 10.869002 48.481 11.847002 49.653 12.934002L49.653 12.934002L48.263 14.323002C 47.872 14.714002 47.871002 15.346002 48.263 15.737001C 48.654 16.128002 49.286 16.128002 49.677002 15.737001L49.677002 15.737001L51.067 14.3480015C 52.154003 15.521002 53.131 16.793001 53.989002 18.151001L53.989002 18.151001L49.685 20.634C 49.207 20.91 49.045002 21.523 49.321003 21.999C 49.597004 22.478 50.209003 22.642 50.689003 22.364L50.689003 22.364L54.993004 19.880001C 55.737003 21.286001 56.360004 22.766 56.840004 24.310001L56.840004 24.310001L54.924004 24.823002C 54.391003 24.967001 54.073 25.513002 54.217003 26.048002C 54.360004 26.581001 54.908005 26.899002 55.442 26.755003L55.442 26.755003L57.351 26.243004C 57.701 27.783005 57.914 29.372004 57.976 31.001003L57.976 31.001003L53 31.001003C 52.447 31.001003 52 31.448004 52 32.001003C 52 32.554 52.447 33.001003 53 33.001003L53 33.001003L57.969 33.001003C 57.907 34.630005 57.694 36.219 57.343002 37.757004L57.343002 37.757004L55.441 37.247005C 54.906002 37.106007 54.362003 37.418007 54.216003 37.954006C 54.073 38.488007 54.394005 39.036007 54.923004 39.179005L54.923004 39.179005L56.829002 39.690006C 56.349003 41.231007 55.732002 42.713005 54.987003 44.119007L54.987003 44.119007L50.686005 41.636005C 50.207005 41.360004 49.596004 41.524006 49.320004 42.002007C 49.044003 42.480007 49.207005 43.091007 49.686005 43.368008L49.686005 43.368008L55.721004 46.85201C 56.075005 46.28901 56.407005 45.709007 56.721004 45.12001C 58.81 41.202 60 36.739 60 32C 60 16.561 47.439 4 32 4z" stroke="none" fill="#231F20" fill-rule="nonzero" />
		</g>
	</g>
</g>
</svg>