<!DOCTYPE svg PUBLIC "-//W3C//DTD SVG 1.1//EN" "http://www.w3.org/Graphics/SVG/1.1/DTD/svg11.dtd">
<!-- Uploaded to: SVG Repo, www.svgrepo.com, Transformed by: SVG Repo Mixer Tools -->
<svg version="1.1" id="Layer_1" xmlns="http://www.w3.org/2000/svg" xmlns:xlink="http://www.w3.org/1999/xlink" viewBox="0 0 512 512" xml:space="preserve" width="64px" height="64px" fill="#000000">
<g id="SVGRepo_bgCarrier" stroke-width="0"/>
<g id="SVGRepo_tracerCarrier" stroke-linecap="round" stroke-linejoin="round"/>
<g id="SVGRepo_iconCarrier"> <rect x="309.449" y="22.505" style="fill:#2F5E88;" width="56.263" height="157.538"/> <rect x="146.285" y="22.505" style="fill:#367596;" width="185.67" height="157.538"/> <polygon style="fill:#88ACB5;" points="343.208,157.538 320.703,180.043 343.208,202.549 376.966,202.549 376.966,157.538 "/> <rect x="135.032" y="157.538" style="fill:#A7CBCF;" width="208.175" height="45.011"/> <polygon style="fill:#88ACB5;" points="343.208,0 320.703,22.505 343.208,45.011 376.966,45.011 376.966,0 "/> <rect x="135.032" style="fill:#A7CBCF;" width="208.175" height="45.011"/> <polygon style="fill:#88ACB5;" points="343.208,78.769 320.703,101.274 343.208,123.78 376.966,123.78 376.966,78.769 "/> <rect x="135.032" y="78.769" style="fill:#A7CBCF;" width="208.175" height="45.011"/> <path style="fill:#27467A;" d="M461.362,236.309h-33.758v33.758h33.758c9.317,0,16.879-7.562,16.879-16.879 C478.241,243.859,470.679,236.309,461.362,236.309z"/> <path style="fill:#2F5E88;" d="M427.604,236.309c9.317,0,16.879,7.551,16.879,16.879c0,9.317-7.562,16.879-16.879,16.879h-50.637 L256,315.078l-120.966-45.011H50.638c-9.317,0-16.879-7.562-16.879-16.879c0-9.328,7.562-16.879,16.879-16.879L427.604,236.309 L427.604,236.309z"/> <polygon style="fill:#27467A;" points="384.292,348.836 399.472,512 365.714,512 286.596,315.078 "/> <polygon style="fill:#2F5E88;" points="354.112,348.836 365.714,512 112.528,512 127.708,348.836 240.91,303.825 "/> <polygon style="fill:#FF0F47;" points="376.966,270.067 384.292,348.836 354.112,348.836 317.738,309.451 348.508,270.067 "/> <polygon style="fill:#FF6176;" points="348.508,270.067 354.112,348.836 127.708,348.836 135.033,270.067 "/> <g> <circle style="fill:#27467A;" cx="172.718" cy="428.908" r="8.44"/> <circle style="fill:#27467A;" cx="206.476" cy="462.666" r="8.44"/> </g> </g>
</svg>