<!DOCTYPE svg PUBLIC "-//W3C//DTD SVG 1.1//EN" "http://www.w3.org/Graphics/SVG/1.1/DTD/svg11.dtd">
<!-- Uploaded to: SVG Repo, www.svgrepo.com, Transformed by: SVG Repo Mixer Tools -->
<svg version="1.1" id="Layer_1" xmlns="http://www.w3.org/2000/svg" xmlns:xlink="http://www.w3.org/1999/xlink" viewBox="0 0 512 512" xml:space="preserve" width="64px" height="64px" fill="#000000">
<g id="SVGRepo_bgCarrier" stroke-width="0"/>
<g id="SVGRepo_tracerCarrier" stroke-linecap="round" stroke-linejoin="round"/>
<g id="SVGRepo_iconCarrier"> <path style="fill:#F2F2F2;" d="M503.47,60.962v390.076H8.537V60.962H503.47z M452.088,257.422c24.439-24.439,24.439-64.057,0-88.496 c-18.569-18.569-45.887-23.029-68.654-13.38c-7.214,3.038-13.972,7.509-19.843,13.38c-17.328,17.328-22.369,42.28-15.121,64.046 c2.97,8.932,8.01,17.34,15.121,24.451C388.031,281.861,427.649,281.861,452.088,257.422z M188.966,399.189v-84.901h-30.72v84.901 H188.966z M132.6,399.189v-58.197h-30.72v58.197H132.6z M127.093,191.954c1.877-4.608,2.901-9.648,2.901-14.939 c0-15.588-8.954-29.093-22.016-35.624c-5.348-2.685-11.401-4.198-17.806-4.198c-21.993,0-39.822,17.829-39.822,39.822 s17.829,39.822,39.822,39.822C106.886,216.837,121.188,206.54,127.093,191.954z M76.235,399.189v-36.238h-30.72v36.238H76.235z"/> <path style="fill:#2BA5F7;" d="M452.088,168.925c24.439,24.439,24.439,64.057,0,88.496c-24.439,24.439-64.057,24.439-88.496,0 c-7.111-7.111-12.151-15.519-15.121-24.451h0.011l59.358-19.797l-24.405-57.617v-0.011 C406.201,145.897,433.52,150.357,452.088,168.925z"/> <g> <path style="fill:#F7B239;" d="M383.435,155.556l24.405,57.617l-59.358,19.797h-0.011c-7.248-21.766-2.207-46.717,15.121-64.046 c5.871-5.871,12.629-10.342,19.843-13.38L383.435,155.556L383.435,155.556z"/> <rect x="158.242" y="314.289" style="fill:#F7B239;" width="30.72" height="84.901"/> </g> <g> <rect x="101.877" y="340.993" style="fill:#F95428;" width="30.72" height="58.197"/> <path style="fill:#F95428;" d="M129.995,177.015c0,5.291-1.024,10.331-2.901,14.939h-0.011l-36.91-14.939l17.806-35.624 C121.04,147.922,129.995,161.427,129.995,177.015z"/> </g> <path style="fill:#2BA5F7;" d="M127.082,191.954h0.011c-5.905,14.586-20.207,24.883-36.921,24.883 c-21.993,0-39.822-17.829-39.822-39.822h39.822L127.082,191.954z"/> <path style="fill:#F7B239;" d="M107.979,141.391l-17.806,35.624H50.35c0-21.993,17.829-39.822,39.822-39.822 C96.578,137.193,102.631,138.706,107.979,141.391z"/> <rect x="45.511" y="362.952" style="fill:#2BA5F7;" width="30.72" height="36.238"/> <g> <path style="fill:#333333;" d="M503.467,52.425H8.533C3.821,52.425,0,56.245,0,60.958v390.084c0,4.713,3.821,8.533,8.533,8.533 h494.933c4.713,0,8.533-3.821,8.533-8.533V60.958C512,56.245,508.179,52.425,503.467,52.425z M494.933,442.51H17.067V69.492 h477.867V442.51z"/> <path style="fill:#333333;" d="M90.169,225.367c26.664,0,48.356-21.692,48.356-48.356s-21.692-48.356-48.356-48.356 s-48.356,21.692-48.356,48.356S63.505,225.367,90.169,225.367z M90.169,208.3c-14.294,0-26.371-9.639-30.097-22.756h28.435 l26.342,10.664C109.119,203.559,100.189,208.3,90.169,208.3z M121.271,180.398l-19.341-7.83l9.323-18.652 c6.266,5.725,10.205,13.959,10.205,23.096C121.458,178.156,121.392,179.285,121.271,180.398z M90.169,145.723 c1.991,0,3.936,0.195,5.824,0.552l-11.099,22.204H60.072C63.797,155.362,75.875,145.723,90.169,145.723z"/> <path style="fill:#333333;" d="M158.436,163.737h140.516c4.713,0,8.533-3.821,8.533-8.533c0-4.713-3.821-8.533-8.533-8.533H158.436 c-4.713,0-8.533,3.821-8.533,8.533C149.902,159.916,153.723,163.737,158.436,163.737z"/> <path style="fill:#333333;" d="M158.436,196.23h103.943c4.713,0,8.533-3.821,8.533-8.533s-3.821-8.533-8.533-8.533H158.436 c-4.713,0-8.533,3.821-8.533,8.533S153.723,196.23,158.436,196.23z"/> <path style="fill:#333333;" d="M467.058,326.935H263.396c-4.713,0-8.533,3.821-8.533,8.533s3.821,8.533,8.533,8.533h203.662 c4.713,0,8.533-3.821,8.533-8.533S471.77,326.935,467.058,326.935z"/> <path style="fill:#333333;" d="M467.058,358.793H312.32c-4.713,0-8.533,3.821-8.533,8.533c0,4.713,3.821,8.533,8.533,8.533h154.738 c4.713,0,8.533-3.821,8.533-8.533C475.591,362.614,471.77,358.793,467.058,358.793z"/> <path style="fill:#333333;" d="M475.591,399.184c0-4.713-3.821-8.533-8.533-8.533H226.421c-4.713,0-8.533,3.821-8.533,8.533 s3.821,8.533,8.533,8.533h240.637C471.77,407.718,475.591,403.898,475.591,399.184z"/> <path style="fill:#333333;" d="M240.783,115.375c1.666,1.666,3.85,2.5,6.034,2.5s4.368-0.833,6.034-2.5l2.012-2.012l2.012,2.012 c1.666,1.666,3.85,2.5,6.034,2.5c2.183,0,4.368-0.833,6.034-2.5c3.333-3.333,3.333-8.736,0-12.067l-2.012-2.012l2.012-2.012 c3.333-3.333,3.333-8.736,0-12.067c-3.333-3.333-8.736-3.333-12.067,0l-2.012,2.01l-2.012-2.012c-3.333-3.333-8.736-3.333-12.067,0 c-3.333,3.333-3.333,8.736,0,12.067l2.012,2.012l-2.012,2.012C237.451,106.639,237.451,112.042,240.783,115.375z"/> <path style="fill:#333333;" d="M291.271,109.828h47.787c4.713,0,8.533-3.821,8.533-8.533c0-4.713-3.821-8.533-8.533-8.533h-47.787 c-4.713,0-8.533,3.821-8.533,8.533C282.738,106.007,286.558,109.828,291.271,109.828z"/> <path style="fill:#333333;" d="M172.942,109.828h47.787c4.713,0,8.533-3.821,8.533-8.533c0-4.713-3.821-8.533-8.533-8.533h-47.787 c-4.713,0-8.533,3.821-8.533,8.533C164.409,106.007,168.23,109.828,172.942,109.828z"/> <path style="fill:#333333;" d="M357.559,263.458c13.431,13.431,31.289,20.828,50.283,20.828c18.994,0,36.853-7.397,50.283-20.828 c27.726-27.727,27.726-72.841,0-100.566c-13.43-13.431-31.289-20.828-50.283-20.828c-18.994,0-36.853,7.397-50.283,20.828 C329.834,190.618,329.834,235.732,357.559,263.458z M446.058,174.96c21.072,21.073,21.072,55.359,0,76.43 c-10.208,10.208-23.78,15.83-38.215,15.83c-14.436,0-28.008-5.622-38.216-15.83c-3.997-3.997-7.232-8.471-9.712-13.238 l50.627-16.882c2.257-0.753,4.098-2.414,5.078-4.583c0.98-2.17,1.008-4.649,0.08-6.84l-20.824-49.153 c4.193-1.029,8.538-1.562,12.966-1.562C422.278,159.13,435.85,164.752,446.058,174.96z M369.628,174.96 c2.922-2.921,6.126-5.452,9.539-7.599l17.217,40.64l-41.834,13.95C351.841,205.355,356.856,187.732,369.628,174.96z"/> <path style="fill:#333333;" d="M76.235,354.421h-30.72c-4.713,0-8.533,3.821-8.533,8.533v36.231c0,4.713,3.821,8.533,8.533,8.533 h30.72c4.713,0,8.533-3.821,8.533-8.533v-36.231C84.768,358.241,80.948,354.421,76.235,354.421z M67.701,390.651H54.048v-19.165 h13.653V390.651z"/> <path style="fill:#333333;" d="M101.881,332.457c-4.713,0-8.533,3.821-8.533,8.533v58.194c0,4.713,3.821,8.533,8.533,8.533h30.72 c4.713,0,8.533-3.821,8.533-8.533V340.99c0-4.713-3.821-8.533-8.533-8.533H101.881z M124.068,390.651h-13.653v-41.127h13.653 V390.651z"/> <path style="fill:#333333;" d="M158.248,407.718h30.72c4.713,0,8.533-3.821,8.533-8.533v-84.902c0-4.713-3.821-8.533-8.533-8.533 h-30.72c-4.713,0-8.533,3.821-8.533,8.533v84.902C149.714,403.898,153.535,407.718,158.248,407.718z M166.781,322.815h13.653 v67.835h-13.653V322.815z"/> <path style="fill:#333333;" d="M312.892,254.118h-122.88c-4.713,0-8.533,3.821-8.533,8.533s3.821,8.533,8.533,8.533h122.88 c4.713,0,8.533-3.821,8.533-8.533S317.606,254.118,312.892,254.118z"/> <circle style="fill:#333333;" cx="473.884" cy="87.325" r="8.533"/> <circle style="fill:#333333;" cx="473.884" cy="424.505" r="8.533"/> <circle style="fill:#333333;" cx="38.119" cy="424.505" r="8.533"/> <circle style="fill:#333333;" cx="38.119" cy="87.325" r="8.533"/> </g> </g>
</svg>